<svg xmlns="http://www.w3.org/2000/svg" width="1200" height="630" viewBox="0 0 1200 630" role="img" aria-labelledby="title desc"><title id="title">Spark and MailVault: two approaches</title><desc id="desc">MailVault: read and reply, save original messages as .eml, and search saved mail offline. Spark: Prioritize and organize the inbox; Use AI across supported providers; Check quotas and available features. Editorial comparison, not a measured score.</desc><rect width="1200" height="630" fill="#f5f4ef"/><g font-family="Inter, Arial, sans-serif"><text x="50" y="54" font-size="18" font-weight="700" letter-spacing="3" fill="#6950b0">MAILVAULT / EMAIL CLIENT GUIDE</text><text x="50" y="110" font-size="40" font-weight="700" fill="#24222b">Spark vs MailVault</text><text x="50" y="149" font-size="22" fill="#65616d">Choose around the job you need your email to do.</text><rect x="50" y="180" width="530" height="348" rx="20" fill="#ece9ff" stroke="#bdb2ee"/><text x="80" y="231" font-size="31" font-weight="700" fill="#24222b">MailVault</text><circle cx="87" cy="288" r="16" fill="#6950b0"/><text x="87" y="294" text-anchor="middle" font-size="18" fill="#fff">1</text><text x="118" y="287" font-size="22" fill="#35313f"><tspan x="118" dy="0">Read + reply in your client</tspan></text><circle cx="87" cy="368" r="16" fill="#6950b0"/><text x="87" y="374" text-anchor="middle" font-size="18" fill="#fff">2</text><text x="118" y="367" font-size="22" fill="#35313f"><tspan x="118" dy="0">Save original mail as .eml</tspan></text><circle cx="87" cy="448" r="16" fill="#6950b0"/><text x="87" y="454" text-anchor="middle" font-size="18" fill="#fff">3</text><text x="118" y="447" font-size="22" fill="#35313f"><tspan x="118" dy="0">Search your saved mail offline</tspan></text><rect x="620" y="180" width="530" height="348" rx="20" fill="#fff" stroke="#d9d7cd"/><text x="650" y="231" font-size="31" font-weight="700" fill="#24222b">Spark</text><circle cx="657" cy="288" r="16" fill="#333644"/><text x="657" y="294" text-anchor="middle" font-size="18" fill="#fff">1</text><text x="688" y="287" font-size="22" fill="#35313f"><tspan x="688" dy="0">Prioritize and organize the inbox</tspan></text><circle cx="657" cy="368" r="16" fill="#333644"/><text x="657" y="374" text-anchor="middle" font-size="18" fill="#fff">2</text><text x="688" y="367" font-size="22" fill="#35313f"><tspan x="688" dy="0">Use AI across supported providers</tspan></text><circle cx="657" cy="448" r="16" fill="#333644"/><text x="657" y="454" text-anchor="middle" font-size="18" fill="#fff">3</text><text x="688" y="447" font-size="22" fill="#35313f"><tspan x="688" dy="0">Check quotas and available features</tspan></text><text x="50" y="577" font-size="19" fill="#65616d">Winner for local email ownership: MailVault</text><text x="50" y="607" font-size="16" fill="#65616d">Editorial recommendation by MailVault’s makers · Sources checked October 2, 2026 · No benchmark scores</text></g></svg>